<svg xmlns="http://www.w3.org/2000/svg" viewBox="0 0 377.582 377.582"><path d="M333.72 362.63L320.33 104.066c-.373-7.194-6.315-12.836-13.517-12.836H267.31V78.526C267.31 35.225 232.08 0 188.78 0c-43.3 0-78.523 35.226-78.523 78.525V91.23H70.75c-7.203 0-13.146 5.643-13.52 12.837L43.81 363.345c-.192 3.706 1.146 7.33 3.702 10.02 2.555 2.692 6.104 4.217 9.816 4.217h262.93c7.475 0 13.534-6.06 13.534-13.536 0-.48-.024-.952-.073-1.417zM129.54 146.02c-8.006 0-14.5-6.492-14.5-14.5s6.494-14.5 14.5-14.5c8.008 0 14.5 6.494 14.5 14.5s-6.492 14.5-14.5 14.5zm97.497-54.79h-76.51V78.526c0-21.095 17.16-38.255 38.253-38.255 21.096 0 38.257 17.16 38.257 38.255V91.23zm21.004 54.79c-8.006 0-14.5-6.492-14.5-14.5s6.494-14.5 14.5-14.5c8.008 0 14.5 6.494 14.5 14.5s-6.492 14.5-14.5 14.5z" fill="#231F20"/></svg>