<svg xmlns="http://www.w3.org/2000/svg" width="395.025" height="395.025" viewBox="0 0 395.025 395.025"><path d="M357.507 380.982l-19.593-298.76c-.43-6.57-5.887-11.68-12.473-11.68h-54.69V62.5c0-34.462-28.037-62.5-62.5-62.5h-21.494c-34.462 0-62.5 28.038-62.5 62.5v8.04h-54.69c-6.586 0-12.042 5.11-12.473 11.683L37.45 381.71c-.227 3.448.986 6.837 3.35 9.36 2.364 2.525 5.666 3.955 9.124 3.955h295.18c6.902 0 12.5-5.596 12.5-12.5-.003-.52-.034-1.037-.097-1.543zM149.255 62.5c0-20.678 16.822-37.5 37.5-37.5h21.495c20.678 0 37.5 16.822 37.5 37.5v8.04h-96.495V62.5zM63.27 370.025L81.272 95.542h42.983v11.154c-8.895 4.56-15 13.818-15 24.482 0 15.164 12.336 27.5 27.5 27.5s27.5-12.336 27.5-27.5c0-10.664-6.105-19.922-15-24.482V95.542h96.495v11.154c-8.896 4.56-15 13.818-15 24.482 0 15.164 12.336 27.5 27.5 27.5s27.5-12.336 27.5-27.5c0-10.664-6.105-19.922-15-24.482V95.542h42.983l18.002 274.483H63.27z"/></svg>