<svg xmlns="http://www.w3.org/2000/svg" viewBox="0 0 455.992 455.992" width="512" height="512"><path d="M227.996 0C102.08 0 0 102.08 0 227.996 0 353.94 102.08 455.992 227.996 455.992c125.945 0 227.996-102.05 227.996-227.996C455.992 102.08 353.942 0 227.996 0zm0 425.593c-108.952 0-197.597-88.645-197.597-197.597S119.043 30.4 227.995 30.4s197.597 88.644 197.597 197.596-88.645 197.597-197.597 197.597z"/><path d="M312.142 122.358l-83.538 83.568-74.965-83.568c-5.93-5.928-15.566-5.928-21.493 0-5.928 5.928-5.928 15.565 0 21.492l74.965 83.568-84.723 84.723c-5.93 5.93-5.93 15.596 0 21.493 5.927 5.928 15.564 5.928 21.49 0l83.57-83.538 74.964 83.538c5.897 5.928 15.565 5.928 21.462 0 5.928-5.898 5.928-15.565 0-21.492l-74.995-83.537 84.724-84.754c5.928-5.93 5.928-15.566 0-21.493-5.928-5.927-15.534-5.927-21.462 0z"/></svg>