<svg xmlns="http://www.w3.org/2000/svg" viewBox="0 0 476.737 476.737" width="512" height="512"><path d="M238.37 0C106.725 0 0 106.726 0 238.37c0 131.674 106.726 238.368 238.37 238.368 131.674 0 238.368-106.694 238.368-238.37C476.738 106.727 370.043 0 238.368 0zm110.443 150.395l-88.578 88.61 78.407 87.338c6.198 6.198 6.198 16.304 0 22.47-6.166 6.198-16.273 6.198-22.438 0l-78.407-87.338-87.37 87.338c-6.198 6.198-16.273 6.198-22.47 0-6.198-6.166-6.198-16.273 0-22.47l88.578-88.578-78.376-87.37c-6.2-6.198-6.2-16.273 0-22.47s16.272-6.198 22.47 0l78.406 87.37 87.338-87.37c6.198-6.198 16.273-6.198 22.47 0 6.198 6.197 6.166 16.272-.03 22.47z"/></svg>