<svg xmlns="http://www.w3.org/2000/svg" viewBox="0 0 30.511 30.511"><path d="M26.818 19.037L30.425 8.24c.18-.518.044-.83-.102-1.036-.374-.527-1.143-.532-1.292-.532L8.647 6.668l-.544-2.58c-.147-.61-.58-1.19-1.456-1.19H.916c-.593 0-.916.277-.916.832v1.49c0 .537.322.677.938.677h4.837l3.702 15.717c-.588.623-.908 1.53-.908 2.378 0 1.864 1.483 3.582 3.38 3.582 1.79 0 3.13-1.677 3.35-2.677h7.21c.217 1 1.304 2.717 3.348 2.717 1.863 0 3.378-1.614 3.378-3.475 0-1.852-1.125-3.493-3.36-3.493-.928 0-2.03.5-2.542 1.25h-8.86c-.642-1-1.52-1.31-2.408-1.345l-.123-.655h13.48c1.015 0 1.215-.37 1.395-.86zm-.935 3.79c.7 0 1.27.57 1.27 1.27s-.57 1.27-1.27 1.27-1.27-.567-1.27-1.27c0-.7.57-1.27 1.27-1.27zm-12.678 1.27c0 .71-.576 1.287-1.283 1.287-.71-.002-1.286-.577-1.286-1.286s.577-1.286 1.286-1.286c.707 0 1.283.577 1.283 1.286z" fill="#010002"/></svg>