<svg width="18" height="16" viewBox="0 0 18 16" xmlns="http://www.w3.org/2000/svg"><title>google+</title><path d="M7.12 10.63c-.103-.065-.208-.135-.317-.205-.32-.092-.657-.14-1.003-.145h-.042c-1.59 0-2.987.913-2.987 1.955 0 1.134 1.197 2.02 2.723 2.02 2.013 0 3.033-.658 3.033-1.954 0-.122-.016-.25-.048-.377-.136-.503-.623-.817-1.36-1.294zm.293 4.785c-.594.163-1.237.245-1.91.245-.752 0-1.474-.082-2.147-.243-1.302-.312-2.265-.902-2.714-1.663-.194-.33-.292-.68-.292-1.042 0-.374.094-.754.28-1.13.714-1.44 2.595-2.41 4.68-2.41h.058c-.17-.283-.25-.576-.25-.884 0-.153.02-.31.064-.468-2.186-.047-3.82-1.564-3.82-3.564 0-1.412 1.19-2.788 2.893-3.344.51-.167 1.03-.252 1.54-.252h4.674c.158 0 .3.098.35.24.048.144-.006.3-.135.39l-1.045.717c-.063.042-.138.064-.216.064H9.05c.483.55.766 1.334.766 2.213 0 .97-.518 1.888-1.46 2.587-.73.538-.757.686-.757.993.008.168.515.72 1.074 1.094 1.304.873 1.79 1.73 1.79 3.162-.002 1.494-1.2 2.785-3.05 3.295zm10.555-7.6c0 .193-.166.35-.368.35h-2.656v2.518c0 .192-.165.348-.366.348h-.756c-.204 0-.37-.155-.37-.347v-2.52H10.8c-.203 0-.368-.153-.368-.347V7.1c0-.192.165-.35.367-.35h2.653V4.236c0-.193.165-.348.37-.348h.755c.2 0 .366.155.366.348V6.75H17.6c.202 0 .367.157.367.35v.716zM5.99 6.676h.002c.38 0 .702-.142.95-.412.39-.42.564-1.112.46-1.846-.18-1.312-1.17-2.404-2.202-2.433h-.04c-.366 0-.692.142-.94.41-.384.417-.547 1.076-.446 1.808.18 1.31 1.192 2.444 2.203 2.474h.014z" fill="#343434" fill-rule="evenodd"/></svg>