<svg xmlns="http://www.w3.org/2000/svg" width="49.652" height="49.652" viewBox="0 0 49.652 49.652"><path d="M21.5 28.94c-.16-.107-.326-.223-.5-.34-.502-.154-1.036-.234-1.583-.24h-.066c-2.513 0-4.717 1.52-4.717 3.256 0 1.89 1.89 3.367 4.3 3.367 3.178 0 4.79-1.098 4.79-3.258 0-.204-.025-.416-.076-.63-.215-.837-.984-1.36-2.147-2.155zM19.72 22.352c.602 0 1.11-.237 1.502-.687.616-.702.89-1.854.727-3.077-.286-2.186-1.85-4.006-3.48-4.053l-.065-.002c-.577 0-1.092.238-1.483.686-.607.692-.864 1.79-.705 3.01.286 2.185 1.882 4.072 3.48 4.122h.022z"/><path d="M24.826 0C11.136 0 0 11.137 0 24.826c0 13.688 11.137 24.826 24.826 24.826 13.688 0 24.826-11.138 24.826-24.826C49.652 11.136 38.516 0 24.826 0zm-2.862 36.915c-.938.27-1.953.408-3.018.408-1.186 0-2.326-.136-3.39-.405-2.056-.52-3.576-1.503-4.286-2.77-.306-.55-.46-1.133-.46-1.738 0-.623.148-1.255.442-1.88 1.127-2.403 4.098-4.02 7.39-4.02h.093c-.267-.47-.396-.958-.396-1.47 0-.256.033-.516.1-.78-3.45-.08-6.034-2.607-6.034-5.94 0-2.353 1.88-4.646 4.57-5.572.806-.278 1.627-.42 2.434-.42h7.382c.25 0 .474.163.552.402.078.238-.008.5-.21.647l-1.652 1.195c-.1.07-.218.108-.34.108h-.592c.763.915 1.21 2.22 1.21 3.685 0 1.617-.818 3.146-2.307 4.31-1.15.897-1.195 1.144-1.195 1.655.014.28.815 1.198 1.7 1.823 2.058 1.456 2.824 2.885 2.824 5.27 0 2.49-1.892 4.642-4.818 5.492zm16.67-12.662c0 .32-.26.58-.58.58H33.86v4.197c0 .32-.26.58-.578.58h-1.195c-.322 0-.582-.26-.582-.58v-4.197h-4.192c-.32 0-.58-.258-.58-.58V23.06c0-.32.26-.582.58-.582h4.192v-4.193c0-.32.26-.58.582-.58h1.195c.317 0 .578.26.578.58v4.193h4.194c.32 0 .58.26.58.58v1.195z"/></svg>