<svg xmlns="http://www.w3.org/2000/svg" viewBox="0 0 543.906 543.906"><path d="M271.953 0C121.76 0 0 121.76 0 271.953s121.76 271.953 271.953 271.953 271.953-121.76 271.953-271.953S422.148 0 271.953 0zm45.04 76.316c1.056-.05 2.14-.06 3.232 0 14.724-.484 27.533 10.622 29.578 24.987 6.576 27.58-22.72 55.228-49.63 44.192-32.14-14.92-15.95-67.586 16.82-69.18zM303.74 196.318c20.874-1.327 24.518 22.964 18.013 47.592-12.695 56.583-32.455 111.403-43.175 168.442 5.178 22.523 33.575-3.312 45.72-11.558 10.33-8.213 12.125 2.083 15.638 10.71-25.776 18.058-51.687 36.447-80.395 50.99-26.97 16.362-49.048-9.07-42.32-37.393 11.128-52.84 25.776-104.88 37.736-157.563 3.737-28.468-33.728.51-44.872 7.136-8.985 11.292-13.25 3.05-16.997-7.136 29.87-21.816 60.325-48.593 93.313-65.95 6.738-3.35 12.52-4.965 17.34-5.27z" fill="#010002"/></svg>