<svg width="16" height="16" viewBox="0 0 16 16" xmlns="http://www.w3.org/2000/svg"><title>Shape</title><path d="M8.01 10.8c1.536 0 2.787-1.185 2.787-2.64 0-.576-.198-1.106-.527-1.54-.506-.665-1.328-1.1-2.258-1.1-.93 0-1.75.435-2.26 1.1-.328.433-.525.964-.525 1.54-.002 1.455 1.248 2.64 2.784 2.64zm6.083-5.87V2.387h-.35l-2.333.008.01 2.543 2.673-.008zm1.83 1.69v6.14c0 1.6-1.37 2.9-3.057 2.9h-9.71C1.47 15.66.1 14.36.1 12.76v-9.2c0-1.6 1.37-2.9 3.057-2.9h9.708c1.687 0 3.06 1.3 3.06 2.9v3.06zM12.34 8.16c0 2.26-1.942 4.1-4.33 4.1-2.385 0-4.326-1.84-4.326-4.1 0-.545.114-1.065.318-1.54H1.64v6.14c0 .794.68 1.437 1.517 1.437h9.707c.836 0 1.517-.643 1.517-1.436V6.62H12.02c.205.475.32.995.32 1.54z" fill="#343434" fill-rule="evenodd"/></svg>