<svg xmlns="http://www.w3.org/2000/svg" width="49.652" height="49.652" viewBox="0 0 49.652 49.652"><path d="M29.35 21.298c-2.125 0-3.074 1.168-3.605 1.988v-1.704h-4.002c.052 1.128 0 12.04 0 12.04h4.002v-6.726c0-.36.023-.72.13-.977.29-.72.95-1.466 2.055-1.466 1.448 0 2.027 1.104 2.027 2.724v6.442h4.002v-6.905c-.002-3.696-1.977-5.417-4.61-5.417zm-3.608 2.03h-.025c.008-.014.02-.027.025-.04v.04zM15.523 21.582h4.002v12.04h-4.002z"/><path d="M24.826 0C11.136 0 0 11.137 0 24.826c0 13.688 11.137 24.826 24.826 24.826 13.688 0 24.826-11.138 24.826-24.826C49.652 11.136 38.516 0 24.826 0zM37.99 36.055c0 1.056-.875 1.91-1.958 1.91h-22.58c-1.08 0-1.958-.854-1.958-1.91V13.21c0-1.054.877-1.91 1.957-1.91h22.582c1.082 0 1.96.857 1.96 1.91v22.845z"/><path d="M17.55 15.777c-1.367 0-2.263.898-2.263 2.08 0 1.155.87 2.08 2.21 2.08h.027c1.396 0 2.265-.925 2.265-2.08-.028-1.18-.87-2.08-2.24-2.08z"/></svg>