<svg xmlns="http://www.w3.org/2000/svg" width="79.536" height="79.536" viewBox="0 0 79.536 79.536"><path d="M39.773 1.31L0 31.004v47.222h79.536V31.004L39.773 1.31zM28.77 22.5c1.167-2.134 2.775-3.74 4.815-4.806 2.035-1.075 4.357-1.616 6.983-1.616 2.214 0 4.19.435 5.92 1.292 1.73.87 3.046 2.094 3.968 3.687.9 1.595 1.367 3.334 1.367 5.217 0 2.247-.694 4.28-2.082 6.097-1.74 2.293-3.96 3.437-6.68 3.437-.73 0-1.278-.122-1.653-.38-.365-.262-.62-.632-.743-1.13-1.022 1.013-2.23 1.52-3.59 1.52-1.464 0-2.678-.506-3.642-1.508-.966-1.013-1.447-2.362-1.447-4.032 0-2.084.578-3.966 1.743-5.672 1.416-2.084 3.218-3.13 5.424-3.13 1.57 0 2.73.6 3.475 1.805l.33-1.467h3.5l-1.997 9.48c-.125.605-.187.985-.187 1.162 0 .228.052.38.15.497.098.11.222.165.356.165.435 0 .978-.248 1.645-.77.9-.662 1.627-1.573 2.18-2.694.555-1.13.84-2.3.84-3.508 0-2.165-.782-3.977-2.352-5.445-1.573-1.45-3.77-2.185-6.578-2.185-2.393 0-4.417.487-6.077 1.468-1.66.966-2.913 2.343-3.765 4.114-.84 1.76-1.258 3.607-1.258 5.52 0 1.856.48 3.552 1.41 5.074.946 1.534 2.26 2.642 3.957 3.346 1.696.697 3.643 1.046 5.828 1.046 2.097 0 3.91-.293 5.432-.88 1.522-.588 2.74-1.458 3.666-2.642h2.807c-.88 1.792-2.227 3.192-4.05 4.215-2.09 1.163-4.64 1.74-7.643 1.74-2.918 0-5.426-.487-7.542-1.468-2.12-.986-3.69-2.434-4.73-4.35-1.028-1.918-1.535-4.008-1.535-6.268.002-2.478.58-4.79 1.755-6.93zM2.804 31.94l29.344 19.68L2.804 74.334V31.94zm2.23 43.904l34.74-26.885L74.5 75.843H5.032zm71.695-1.51L47.39 51.62l29.34-19.68v42.393zM41.204 24.66c.466.532.7 1.296.7 2.293 0 .89-.175 1.856-.514 2.88-.333 1.035-.742 1.825-1.208 2.36-.318.375-.658.652-.992.826-.44.248-.906.37-1.41.37-.674.005-1.23-.265-1.69-.795-.45-.53-.674-1.346-.674-2.465 0-.84.158-1.805.487-2.89.33-1.087.81-1.915 1.453-2.508.647-.588 1.346-.88 2.1-.88.706.004 1.293.273 1.75.81z" fill="#010002"/></svg>