<svg xmlns="http://www.w3.org/2000/svg" viewBox="0 0 51.413 51.413"><g fill="#010002"><path d="M25.99 12.274c8.662.085 14.09-.454 14.822 9.148h10.564c0-14.875-12.973-16.88-25.662-16.88-12.69 0-25.662 2.005-25.662 16.88h10.482c.81-9.785 6.864-9.232 15.455-9.148zM5.29 26.204c2.574 0 4.715.154 5.19-2.377.065-.344.102-.734.102-1.185H0c0 3.765 2.37 3.562 5.29 3.562zM40.88 22.642h-.1c0 .454.04.845.113 1.185.502 2.334 2.64 2.19 5.204 2.19 2.936 0 5.316.192 5.316-3.375H40.88z"/><path d="M35.72 20.078v-1.496c0-.67-.772-.71-1.724-.71H32.44c-.95 0-1.72.04-1.72.71v2.29h-11v-2.29c0-.67-.772-.71-1.723-.71H16.44c-.95 0-1.72.04-1.72.71v2.802c-2.507 2.604-10.707 13.69-11.005 15.03l.004 8.956c0 .827.672 1.5 1.5 1.5h40c.826 0 1.5-.673 1.5-1.5v-9c-.296-1.303-8.494-12.383-11-14.987v-1.305zM19.176 37.62c-.805 0-1.458-.652-1.458-1.458s.652-1.458 1.457-1.458 1.458.652 1.458 1.458-.653 1.458-1.458 1.458zm0-5c-.805 0-1.458-.652-1.458-1.458s.652-1.458 1.457-1.458 1.458.652 1.458 1.458-.653 1.458-1.458 1.458zm0-5c-.805 0-1.458-.65-1.458-1.457 0-.805.652-1.458 1.457-1.458s1.458.653 1.458 1.458c0 .806-.653 1.458-1.458 1.458zm6 10c-.805 0-1.458-.652-1.458-1.458s.652-1.458 1.457-1.458c.806 0 1.458.652 1.458 1.458s-.652 1.458-1.458 1.458zm0-5c-.805 0-1.458-.652-1.458-1.458s.652-1.458 1.457-1.458c.806 0 1.458.652 1.458 1.458s-.652 1.458-1.458 1.458zm0-5c-.805 0-1.458-.65-1.458-1.457 0-.805.652-1.458 1.457-1.458.806 0 1.458.653 1.458 1.458 0 .806-.652 1.458-1.458 1.458zm6 10c-.806 0-1.458-.652-1.458-1.458s.65-1.458 1.457-1.458 1.458.652 1.458 1.458-.652 1.458-1.458 1.458zm0-5c-.806 0-1.458-.652-1.458-1.458s.65-1.458 1.457-1.458 1.458.652 1.458 1.458-.652 1.458-1.458 1.458zm0-5c-.806 0-1.458-.65-1.458-1.457 0-.805.65-1.458 1.457-1.458s1.458.653 1.458 1.458c0 .806-.652 1.458-1.458 1.458z"/></g></svg>