<svg xmlns="http://www.w3.org/2000/svg" viewBox="0 0 488.139 488.139"><path d="M290.513.004C181.378.004 92.916 88.466 92.916 197.6c0 46.967 16.477 90.043 43.836 124.03L6.156 452.196c-8.208 8.238-8.208 21.553 0 29.76 8.208 8.24 21.553 8.24 29.76 0l130.597-130.565c33.926 27.33 77.032 43.807 124.03 43.807 109.134 0 197.597-88.462 197.597-197.597S399.616.004 290.513.004zm0 364.793c-92.232 0-167.197-74.996-167.197-167.197S198.34 30.403 290.513 30.403 457.71 105.4 457.71 197.6s-74.996 167.197-167.197 167.197z" fill="#010002"/></svg>