<svg width="21" height="16" viewBox="0 0 21 16" xmlns="http://www.w3.org/2000/svg"><title>Twitter</title><path d="M18.19 4.394c.007.163.012.328.012.492 0 5.005-4.018 10.774-11.37 10.774-2.256 0-4.357-.625-6.125-1.7.313.035.63.053.953.053 1.873 0 3.595-.606 4.963-1.62C4.875 12.36 3.4 11.265 2.89 9.76c.244.045.495.07.75.07.366 0 .72-.046 1.054-.133C2.867 9.35 1.49 7.82 1.49 5.984v-.048c.54.283 1.155.454 1.81.473-1.072-.68-1.777-1.84-1.777-3.152 0-.695.196-1.346.54-1.905 1.97 2.292 4.915 3.8 8.235 3.958-.068-.277-.102-.565-.102-.863 0-2.09 1.788-3.787 3.995-3.787 1.15 0 2.187.46 2.917 1.196.91-.17 1.765-.484 2.54-.92-.302.885-.933 1.627-1.76 2.096.808-.09 1.58-.294 2.294-.596-.532.76-1.21 1.426-1.99 1.958z" fill="#343434" fill-rule="evenodd"/></svg>