<svg viewBox="0 0 54 47" xmlns="http://www.w3.org/2000/svg"><path d="M27.953.004c-14.633-.25-26.7 11.41-26.95 26.043C.863 34.344 4.56 41.8 10.45 46.76c.385-.336.798-.644 1.257-.894l7.907-4.313c1.037-.566 1.683-1.653 1.683-2.835v-3.24s-2.32-2.776-3.206-6.633c-.734-.475-1.226-1.296-1.226-2.23v-3.547c0-.78.347-1.477.886-1.965v-5.126S16.695 8 27.5 8s9.75 7.977 9.75 7.977v5.126c.54.488.885 1.185.885 1.965v3.546c0 1.192-.8 2.195-1.886 2.53-.607 1.88-1.48 3.674-2.634 5.304-.29.41-.563.76-.8 1.03V38.8c0 1.223.69 2.342 1.784 2.888l8.468 4.233c.508.256.967.577 1.39.934 5.71-4.762 9.4-11.882 9.536-19.9.252-14.633-11.407-26.7-26.04-26.95z"/></svg>
