<svg viewBox="0 0 22 20" xmlns="http://www.w3.org/2000/svg"><path d="M11.17.002C5.65-.093 1.096 4.307 1 9.828c-.052 3.13 1.343 5.945 3.566 7.816.145-.127.3-.243.474-.337l2.984-1.628c.39-.214.635-.624.635-1.07v-1.223s-.876-1.047-1.21-2.503c-.278-.18-.463-.49-.463-.84v-1.34c0-.294.13-.557.334-.74V6.028S6.923 3.02 11 3.02c4.077 0 3.68 3.01 3.68 3.01v1.933c.203.184.333.447.333.74v1.34c0 .45-.302.828-.71.954-.23.71-.56 1.386-.995 2-.11.156-.213.288-.302.39v1.254c0 .462.26.884.673 1.09l3.194 1.598c.192.096.365.217.525.352 2.154-1.797 3.546-4.483 3.598-7.51C21.093 4.65 16.693.097 11.17.003z"/></svg>
