<svg viewBox="0 0 22 20" xmlns="http://www.w3.org/2000/svg"><path d="M21 10c0-5.514-4.486-10-10-10S1 4.486 1 10c0 2.912 1.252 5.537 3.246 7.367l-.01.008.325.273c.023.018.046.033.067.05.172.143.35.28.533.41.057.043.116.085.176.127.195.133.394.26.597.38l.134.078c.223.127.45.246.684.356l.054.02c.76.354 1.57.614 2.418.767l.068.012c.263.044.53.08.8.105l.097.008c.27.022.54.036.815.036.272 0 .54-.015.808-.037l.1-.007c.27-.025.533-.06.793-.105l.07-.01c.835-.15 1.634-.404 2.384-.748l.083-.038c.224-.106.444-.22.66-.34l.158-.092c.196-.116.388-.236.575-.364l.2-.143c.16-.115.316-.234.47-.358.032-.028.07-.052.102-.08l.333-.277-.01-.01C19.735 15.564 21 12.928 21 10zM1.727 10C1.727 4.887 5.887.727 11 .727c5.113 0 9.273 4.16 9.273 9.273 0 2.755-1.21 5.232-3.124 6.932-.108-.074-.216-.14-.326-.195l-3.08-1.54c-.276-.138-.447-.416-.447-.724v-1.076c.07-.088.146-.187.224-.297.4-.563.72-1.19.95-1.863.463-.218.76-.677.76-1.196V8.754c0-.315-.115-.62-.322-.86v-1.7c.018-.19.085-1.254-.686-2.133-.67-.764-1.755-1.15-3.224-1.15-1.47 0-2.554.386-3.224 1.15-.77.88-.704 1.945-.685 2.133V7.89c-.207.24-.323.547-.323.862v1.29c0 .4.18.773.488 1.025.294 1.154.9 2.027 1.124 2.323v1.053c0 .296-.16.57-.423.712l-2.875 1.568c-.092.05-.183.108-.274.173-1.888-1.7-3.082-4.16-3.082-6.896zm14.713 7.503c-.128.092-.257.18-.388.267-.06.04-.12.078-.182.117-.172.106-.346.207-.525.3l-.118.062c-.41.21-.833.39-1.268.535l-.05.015c-.227.077-.46.144-.69.202h-.003c-.236.06-.474.107-.714.147h-.02c-.226.038-.453.065-.682.085l-.12.01c-.226.016-.453.027-.68.027-.23 0-.46-.012-.69-.03-.04-.002-.08-.004-.12-.008-.23-.02-.46-.047-.686-.084-.01 0-.02-.003-.03-.005-.48-.08-.954-.198-1.415-.353l-.044-.015c-.23-.077-.455-.164-.677-.26h-.006c-.21-.092-.416-.192-.62-.298-.026-.016-.053-.03-.08-.043-.185-.1-.367-.206-.546-.318l-.16-.103c-.165-.108-.327-.22-.486-.34-.016-.01-.032-.025-.048-.037l.035-.02 2.875-1.567c.494-.27.802-.787.802-1.35v-1.31l-.084-.1c-.008-.01-.795-.967-1.092-2.262L7.9 10.63l-.125-.08c-.175-.113-.28-.302-.28-.506v-1.29c0-.17.072-.326.203-.444l.12-.108V6.172l-.003-.048c0-.008-.108-.883.508-1.585.526-.6 1.427-.905 2.678-.905 1.246 0 2.144.302 2.67.897.617.695.516 1.586.515 1.593V8.2l.12.108c.13.117.2.275.2.444v1.29c0 .26-.175.494-.43.572l-.18.056-.057.18c-.215.666-.52 1.282-.908 1.83-.095.134-.188.253-.267.345l-.09.103v1.345c0 .586.327 1.113.85 1.375l3.08 1.54.06.03c-.04.03-.08.056-.12.085z"/></svg>
