<svg width="20" height="20" viewBox="0 0 20 20" xmlns="http://www.w3.org/2000/svg"><path d="M20 10c0-5.514-4.486-10-10-10S0 4.486 0 10c0 2.912 1.252 5.537 3.246 7.367l-.01.008.325.273c.022.018.045.033.066.05.172.143.35.28.533.41.057.043.116.085.176.127.195.133.394.26.597.38l.134.078c.223.127.45.246.684.356l.053.022c.76.353 1.57.613 2.418.766l.068.012c.263.045.53.082.8.106l.097.008c.27.022.54.036.815.036.272 0 .54-.014.808-.036l.1-.007c.27-.025.533-.06.793-.105l.07-.012c.835-.15 1.634-.403 2.384-.747l.083-.038c.224-.106.444-.22.66-.34l.158-.092c.196-.116.388-.236.575-.364l.2-.143c.16-.115.316-.234.47-.358.032-.028.07-.052.102-.08l.333-.277-.01-.01C18.735 15.564 20 12.928 20 10zM.727 10C.727 4.887 4.887.727 10 .727c5.113 0 9.273 4.16 9.273 9.273 0 2.755-1.21 5.232-3.124 6.932-.107-.074-.215-.14-.325-.195l-3.08-1.54c-.276-.138-.447-.416-.447-.724v-1.076c.07-.088.146-.187.224-.297.4-.563.718-1.19.95-1.863.462-.218.76-.677.76-1.196V8.753c0-.315-.116-.62-.323-.86V6.193c.018-.19.085-1.254-.686-2.133-.67-.764-1.755-1.15-3.224-1.15-1.47 0-2.554.386-3.224 1.15-.77.88-.704 1.945-.685 2.133V7.89c-.206.24-.322.547-.322.862v1.29c0 .4.18.773.488 1.025.294 1.154.9 2.027 1.124 2.323v1.053c0 .296-.16.57-.422.712l-2.875 1.568c-.092.05-.183.108-.274.173C1.92 15.196.726 12.736.726 10zm14.713 7.503c-.128.092-.257.18-.388.267-.06.04-.12.078-.182.117-.172.106-.346.207-.525.3l-.118.062c-.41.21-.833.39-1.268.536l-.048.015c-.228.077-.46.144-.692.202h-.002c-.236.06-.474.107-.714.147-.007 0-.013 0-.02.002-.226.037-.453.064-.682.084l-.12.01c-.227.016-.454.027-.682.027-.23 0-.46-.012-.69-.03-.04-.002-.078-.004-.118-.008-.23-.02-.46-.047-.687-.084-.01 0-.02-.003-.03-.005-.48-.08-.954-.198-1.415-.353l-.043-.015c-.23-.077-.455-.164-.677-.26h-.005c-.21-.092-.416-.192-.62-.298-.026-.015-.053-.028-.08-.042-.185-.1-.367-.206-.546-.318l-.16-.102c-.165-.108-.327-.22-.486-.34-.016-.01-.032-.025-.048-.037l.035-.02 2.876-1.567c.494-.27.802-.787.802-1.35v-1.31l-.084-.1c-.008-.01-.795-.967-1.092-2.262l-.033-.143-.125-.08c-.175-.113-.28-.302-.28-.506V8.753c0-.17.072-.327.203-.445l.12-.108V6.172l-.003-.048c0-.008-.108-.883.508-1.585.525-.6 1.426-.904 2.677-.904 1.246 0 2.144.302 2.67.897.617.695.516 1.586.515 1.593L13.182 8.2l.12.108c.13.117.202.275.202.444v1.29c0 .26-.176.494-.43.572l-.18.056-.058.18c-.215.666-.52 1.282-.908 1.83-.095.134-.188.253-.267.345l-.09.103v1.345c0 .586.326 1.113.85 1.375l3.08 1.54.058.03c-.04.03-.08.056-.118.085z" fill="#000" fill-rule="evenodd"/></svg>