<svg xmlns="http://www.w3.org/2000/svg" viewBox="0 0 44.569 44.569"><path d="M11.698 1.74c3.11 0 5.65 1.047 7.603 2.856 1.255 1.16 2.255 2.62 2.985 4.317.73-1.698 1.73-3.16 2.968-4.317 1.952-1.81 4.508-2.857 7.62-2.857 3.237 0 6.157 1.316 8.268 3.427 2.128 2.127 3.43 5.047 3.43 8.27 0 5.54-6.064 12.03-10.366 16.62-.778.824-1.492 1.586-2.143 2.316l-8.935 10.08c-.413.46-1.11.507-1.57.094-.05-.032-.08-.063-.112-.095l-8.936-10.08c-.587-.65-1.35-1.46-2.174-2.348C6.03 25.437 0 18.994 0 13.437c0-3.222 1.317-6.143 3.428-8.27 2.127-2.11 5.048-3.428 8.27-3.428zm6.095 4.49c-1.54-1.428-3.57-2.253-6.095-2.253-2.603 0-4.968 1.063-6.682 2.778s-2.778 4.08-2.778 6.682c0 4.682 5.682 10.746 9.73 15.063.794.84 1.54 1.635 2.206 2.397l8.11 9.143 8.112-9.143c.603-.667 1.365-1.492 2.19-2.365 4.032-4.317 9.746-10.412 9.746-15.095 0-2.603-1.063-4.968-2.762-6.682-1.714-1.714-4.08-2.778-6.698-2.778-2.524 0-4.555.825-6.095 2.254-1.682 1.556-2.825 3.858-3.38 6.62-.08.444-.414.81-.89.905-.603.127-1.19-.254-1.317-.873-.556-2.762-1.7-5.08-3.397-6.65z" fill="#1E201D"/></svg>