<svg width="14" height="16" viewBox="0 0 14 16" xmlns="http://www.w3.org/2000/svg"><title>Youtube</title><path d="M1.584 8.997h.95v4.87h.898v-4.87h.966V8.2H1.584v.797zm7.594.596c-.297 0-.574.154-.834.458V8.2h-.808v5.667h.808v-.41c.27.317.547.47.834.47.32 0 .537-.16.645-.476.054-.178.082-.46.082-.85v-1.682c0-.4-.028-.678-.082-.848-.108-.317-.324-.477-.645-.477zm-.08 3.067c0 .382-.12.57-.352.57-.133 0-.268-.06-.403-.188v-2.574c.135-.127.27-.187.403-.187.233 0 .35.197.35.578v1.802zm-3.068.212c-.18.24-.348.358-.51.358-.108 0-.17-.06-.19-.18-.007-.024-.007-.117-.007-.296v-3.11h-.807v3.34c0 .298.027.5.07.627.082.215.262.316.52.316.298 0 .603-.17.924-.52v.462h.808V9.644H6.03v3.228zm.693-7.13c.263 0 .39-.197.39-.59V3.354c0-.395-.127-.59-.39-.59s-.39.196-.39.59V5.15c0 .396.127.593.39.593zM8.6 2.12h.813v3.14c0 .183 0 .277.01.302.017.12.082.18.19.18.164 0 .335-.12.516-.36V2.118h.815v4.267h-.816V5.92c-.326.354-.635.526-.933.526-.263 0-.444-.1-.526-.317-.044-.13-.07-.335-.07-.636V2.12zM5.517 3.51c0-.456.082-.79.255-1.005.226-.292.543-.437.95-.437.41 0 .726.145.952.437.17.216.253.55.253 1.006v1.495c0 .454-.082.79-.253 1.004-.226.29-.543.436-.952.436-.407 0-.724-.146-.95-.437-.173-.215-.255-.55-.255-1.005V3.51zM3.336.66l.642 2.25.617-2.25h.915L4.422 4.068v2.32h-.904v-2.32c-.083-.41-.264-1.014-.554-1.812-.19-.532-.39-1.065-.58-1.596h.952zm10.377 13.58c-.164.674-.744 1.17-1.444 1.245-1.658.175-3.334.176-5.003.175-1.67 0-3.346 0-5.003-.175-.7-.075-1.28-.57-1.443-1.245C.59 13.282.59 12.235.59 11.247c0-.987.003-2.034.235-2.993.164-.673.744-1.17 1.444-1.244 1.656-.175 3.333-.176 5.003-.175 1.67 0 3.345 0 5.002.175.7.074 1.28.57 1.444 1.244.232.96.23 2.006.23 2.993 0 .988 0 2.035-.233 2.993zM11.75 9.593c-.414 0-.734.144-.968.433-.17.213-.25.543-.25.995v1.48c0 .45.088.78.26.993.233.288.555.433.977.433.42 0 .752-.152.975-.458.098-.136.162-.29.19-.46.007-.076.016-.245.016-.492v-.11h-.822c0 .305-.01.475-.018.517-.046.204-.162.307-.36.307-.278 0-.414-.195-.414-.586v-.75h1.615v-.874c0-.45-.08-.78-.25-.995-.224-.288-.546-.432-.95-.432zm.394 1.665h-.807v-.39c0-.39.135-.586.405-.586.267 0 .402.195.402.585v.39z" fill="#343434" fill-rule="evenodd"/></svg>